<svg xmlns="http://www.w3.org/2000/svg" id="Layer_1" data-name="Layer 1" viewBox="0 0 65.39 73.86"><defs><style>      .cls-1 {        fill: #05080e;      }      .cls-1, .cls-2, .cls-3, .cls-4 {        fill-rule: evenodd;        stroke-width: 0px;      }      .cls-2 {        fill: #3a8dde;      }      .cls-3 {        fill: #fff;      }      .cls-4 {        fill: #f4bd18;      }    </style></defs><path class="cls-3" d="m65.39,0v42.12c0,17.53-14.21,31.74-31.74,31.74h-1.91C14.21,73.86,0,59.65,0,42.12V0h65.39Z"></path><path class="cls-3" d="m32.61,52.25l-.53-.36c-.78-.53-2.35-1.06-4.65-1.06-1.82,0-2.86.46-4.52,1.22-1.33.6-2.92,1.3-5.62,1.3-.97,0-3.6-.22-4.49-1.41l-.06-.09v-19.25l.54.42c1,.77,3.22.96,4.1.96,2.69,0,4.2-.61,5.54-1.22.8-.37,1.46-.67,2.15-.88.71-.22,1.44-.34,2.37-.34,1.87,0,3.64.78,4.92,2.11l.26.26v18.34h-.01Zm.17-18.34l.26-.26c1.28-1.33,3.05-2.11,4.92-2.11.93,0,1.66.12,2.37.34.69.21,1.35.51,2.15.88,1.34.61,2.85,1.22,5.54,1.22.88,0,3.1-.19,4.1-.96l.54-.42v19.25l-.07.09c-.89,1.19-3.53,1.41-4.49,1.41-2.7,0-4.29-.69-5.62-1.3-1.66-.76-2.7-1.22-4.52-1.22-2.31,0-3.87.52-4.65,1.06l-.53.36s0-18.34,0-18.34Z"></path><polygon class="cls-2" points="61.2 27.45 51.7 27.93 51.4 27.03 61.91 18.3 49.19 22.38 61.54 4.35 45.92 18.58 45.38 18.21 50.67 4.01 40.7 16.48 41.39 3.72 36 14.26 35.43 14.17 32.7 4.07 29.97 14.17 29.39 14.26 24 3.71 24.67 16.49 14.71 3.99 19.96 18.26 19.42 18.62 3.87 4.38 16.2 22.38 3.49 18.3 13.99 27.03 13.69 27.93 4.19 27.45 12.81 32.63 12.81 33.81 1.33 33.81 1.33 1.46 64.07 1.46 64.07 33.81 52.59 33.81 52.59 32.63 61.2 27.45"></polygon><path class="cls-4" d="m57.82,33.64v22.78l-22.71.04c-.16,1.19-1.18,2.1-2.41,2.1s-2.26-.92-2.41-2.14H7.59v-22.78h5.22v18.34c.29.45,1.08.8,2.06,1.02.99.22,2.01.28,2.51.28,2.69,0,4.2-.61,5.54-1.22.8-.37,1.46-.67,2.15-.88.71-.22,1.44-.34,2.37-.34,3.04,0,4.68,1.07,5.26,1.55.58-.48,2.22-1.55,5.26-1.55.93,0,1.66.12,2.37.34.69.21,1.35.51,2.15.88,1.34.61,2.85,1.22,5.54,1.22.5,0,1.52-.06,2.51-.28.98-.22,1.77-.56,2.06-1.02v-18.34h5.23Zm-21.81-19.39c-.19-.03-.38-.06-.57-.09l-2.74-9.78-2.74,9.78c-.19.03-.38.06-.57.09l-5.44-10.73.71,12.14c-.16.07-.32.14-.48.22L14.75,4.06l5.35,14.38c-.16.13-.31.26-.46.39L3.99,4.46l12.22,17.93-12.45-3.95,10.23,8.58c-.1.3-.2.59-.29.9l-9.5-.48,8.7,5.24.09.02c.93,1.14,3.45,1.27,4.39,1.27,2.69,0,4.2-.61,5.54-1.22,1.66-.76,2.7-1.22,4.52-1.22,2.68,0,4.39,1.54,5.01,2.21l.25.27.25-.27c.62-.67,2.33-2.21,5.01-2.21,1.82,0,2.86.46,4.52,1.22,1.34.61,2.85,1.22,5.54,1.22.94,0,3.46-.13,4.39-1.27l.09-.02,8.7-5.24-9.5.48c-.09-.31-.19-.61-.3-.9l10.23-8.58-12.45,3.95,12.22-17.93-15.64,14.36c-.15-.13-.31-.26-.47-.39l5.35-14.38-9.43,11.82c-.16-.08-.32-.15-.48-.22l.71-12.13-5.43,10.73Z"></path><path class="cls-1" d="m52.92,32.82v.66h10.82V1.79H1.66v31.68h10.81v-.65l-9.6-5.78,10.58.53.14-.44L1.94,17.45l13.43,4.31L1.94,2.16l17.7,16.22L13.68,2.16l10.6,13.3-.7-13.3,6,11.73.13-.02,2.99-11.09,2.99,11.09.12.02,6-11.73-.73,13.29,10.63-13.29-6.02,16.17L63.45,2.16l-13.43,19.6,13.43-4.31-11.65,9.69.14.44,10.58-.53-9.6,5.77h0Zm0,1.15v18.09c-.67,1.28-3.88,1.55-4.9,1.55-2.75,0-4.31-.63-5.68-1.25-1.57-.71-2.6-1.19-4.38-1.19-3.75,0-5.26,1.67-5.26,1.67,0,0-1.51-1.67-5.26-1.67-1.79,0-2.81.48-4.38,1.19-1.37.63-2.93,1.25-5.68,1.25-1.02,0-4.23-.26-4.9-1.54v-18.09h-4.56v22.11h22.68c0,1.21.94,2.14,2.1,2.14s2.1-.94,2.1-2.1l22.68-.04v-22.12h-4.56Zm-20.64.07v17.57c-.85-.58-2.49-1.12-4.84-1.12-1.9,0-3,.5-4.66,1.25-1.31.6-2.85,1.27-5.48,1.27-1.01,0-3.45-.24-4.23-1.28v-18.45c1.1.85,3.43,1.02,4.31,1.02,2.75,0,4.31-.63,5.68-1.25,1.57-.71,2.6-1.19,4.38-1.19s3.46.75,4.68,2.01l.16.17h0Zm.84,17.58v-17.58l.16-.16c1.22-1.27,2.91-2.01,4.68-2.01s2.81.47,4.38,1.19c1.37.63,2.92,1.25,5.68,1.25.87,0,3.21-.18,4.3-1.02v18.46c-.78,1.03-3.22,1.28-4.23,1.28-2.63,0-4.17-.67-5.48-1.27-1.66-.76-2.76-1.25-4.66-1.25-2.34-.02-3.98.52-4.83,1.11h0Zm-.42-18.1c-.65-.7-2.44-2.32-5.26-2.32-1.9,0-3,.49-4.66,1.25-1.31.6-2.78,1.19-5.4,1.19-1,0-3.33-.16-4.14-1.14.52-10.12,9.03-18.17,19.45-18.17s18.93,8.05,19.46,18.17c-.81.99-3.14,1.14-4.13,1.14-2.62,0-4.09-.59-5.4-1.19-1.66-.76-2.76-1.25-4.66-1.25-2.82,0-4.62,1.62-5.26,2.32h0Zm7.73-18.36c-1.25-.51-2.56-.9-3.92-1.16l4.51-8.91-.59,10.07h0Zm4.71,2.73c-1.06-.81-2.2-1.53-3.41-2.13l7.87-9.85-4.46,11.98h0Zm3.94,4.05c-.83-1.14-1.77-2.18-2.82-3.12l13.23-12.15-10.41,15.27h0Zm2.47,4.52c-.52-1.36-1.19-2.65-1.99-3.84l10.56-3.35-8.57,7.19h0Zm1.25,5.65c-.09-1.33-.32-2.62-.66-3.87l7.75-.39-7.09,4.26h0Zm-17.82-18.33c-.75-.08-1.51-.13-2.29-.13s-1.53.04-2.28.13l2.29-8.15,2.28,8.15h0Zm-6.1.23c-1.36.25-2.67.65-3.92,1.16l-.59-10.06,4.51,8.9h0Zm-5.22,1.74c-1.21.6-2.35,1.32-3.41,2.13l-4.46-11.98,7.87,9.85h0Zm-4.53,3.07c-1.05.94-2,1.98-2.82,3.12L5.91,6.67l13.22,12.15h0Zm-3.29,3.8c-.8,1.2-1.47,2.48-1.99,3.84l-8.57-7.19,10.56,3.35h0Zm-2.58,5.62c-.34,1.25-.57,2.54-.66,3.87l-7.08-4.26,7.74.39h0ZM64.4,1.12v40.84c0,17-13.78,30.78-30.78,30.78h-1.85C14.77,72.74.99,58.96.99,41.96V1.12h63.41ZM30.95,54.96l-20.62.03-1.31-.45v-19.74l.48-.15v19.6l.79-.58-.03-19.25.95-.29v19.01s3.04,1.04,6.2,1.04c2.88,0,4.51-.57,5.93-1.22.75-.34,2.35-1.13,4.1-1.13,3.11,0,5.26,1.62,5.26,1.62,0,0,2.15-1.62,5.26-1.62,1.75,0,3.35.79,4.11,1.13,1.42.65,3.04,1.22,5.93,1.22,3.16,0,6.2-1.04,6.2-1.04v-19.01l.94.29-.03,19.25.79.58v-19.6l.48.15v19.74l-1.31.45-20.62-.03c-.38-.57-1.02-.94-1.75-.94s-1.38.38-1.75.94h0Zm-9.67-11.32v1.17h-.69v-3.72h1.11l.37,1.73c.06.28.1.57.14.86.03-.37.06-.61.11-.86l.37-1.73h1.1v3.72h-.69v-1.17c0-.74.02-1.48.05-2.22l-.75,3.39h-.42l-.76-3.39c.04.74.06,1.48.06,2.22h0Zm20.39,4.34v1.17h-.69v-3.73h1.11l.37,1.73c.06.29.1.57.14.86.04-.37.06-.61.11-.86l.37-1.73h1.1v3.73h-.7v-1.17c0-.74.02-1.48.05-2.22l-.75,3.39h-.42l-.76-3.39c.05.74.07,1.48.07,2.22h0Zm-.1-5.69v1.17h-.7v-3.72h1.11l.37,1.72c.06.29.1.57.14.86.03-.37.06-.62.11-.86l.37-1.72h1.1v3.72h-.69v-1.17c0-.74.01-1.48.05-2.22l-.74,3.39h-.42l-.75-3.39c.03.74.05,1.48.05,2.22h0Zm-20.01-2.6h-.69v-3.72h.69v3.72h0Zm-4.96,5.74h-1.99v-3.72h.7v3.18h1.29v.54h0Zm2.16-1.24v-2.54h.7v2.6c0,.83-.27,1.21-1.18,1.21s-1.18-.39-1.18-1.21v-2.6h.69v2.54c0,.36.02.72.5.72.45,0,.47-.36.47-.72h0Zm6.52.23h-.69v-3.72h.69v3.72h0Zm2.72-2.94v-.73h.7v3.72h-.73l-.54-1.33c-.18-.44-.33-.89-.51-1.47.02.31.05.68.08,1.06.02.37.03.74.03,1.04v.7h-.7v-3.72h.72l.54,1.35c.18.43.33.87.51,1.48-.02-.34-.05-.7-.07-1.05-.01-.36-.03-.72-.03-1.05h0Zm3.48,3.16h-1.95v-3.72h1.95v.54h-1.26v.94h1.16v.55h-1.16v1.14h1.26v.55h0Zm16.69-5.8h-1.95v-3.72h1.95v.55h-1.26v.94h1.16v.55h-1.16v1.14h1.26v.54h0Zm-8.69,4.56h-.69v-3.72h.69v3.72h0Zm-2.14,5.64h-1.98v-3.72h.69v3.18h1.29v.54h0Zm9.98.62h-1.95v-3.72h1.95v.55h-1.26v.94h1.16v.54h-1.16v1.15h1.26v.54h0Zm-5.75-11.84h-.7v-3.72h.7v3.72h0Zm1.88-.15v-2.63h.46c.41,0,.5.34.5,1.23,0,1.07-.04,1.4-.66,1.4h-.3Zm.59.55h-1.28v-3.72h1.45c.17,0,.51.07.72.42.16.26.2.67.2,1.29,0,.73,0,1.58-.57,1.92-.15.08-.34.09-.52.09h0Zm-5.05-2.06l.39-2.39h.74l-.8,3.73h-.93l-.82-3.73h.74l.44,2.39c.04.2.07.42.08.63l.04.31c0-.1.02-.21.03-.31.03-.22.05-.43.09-.63h0Zm-2.72,6.81v-1.12h.27c.43,0,.51.17.51.57,0,.19-.03.43-.21.52-.12.05-.27.04-.42.04h-.15Zm0-1.67v-.96h.32c.32,0,.38.15.38.43,0,.18-.01.31-.08.41-.11.13-.33.12-.5.12h-.12Zm.52,2.22h-1.23v-3.72h1.12c.3,0,.59.02.79.28.16.2.18.42.18.67,0,.32-.07.64-.45.79.39.05.54.38.54.86,0,.15-.01.31-.05.45-.13.47-.4.67-.9.67h0Zm10.19-.45v-2.54h.69v2.6c0,.83-.27,1.21-1.17,1.21s-1.19-.39-1.19-1.21v-2.6h.7v2.54c0,.36.03.71.5.71.44,0,.47-.35.47-.71h0Zm3.72-.67h-.67c0-.33-.03-.66-.41-.66-.24,0-.38.09-.38.35,0,.29.18.39.4.53.23.14.65.42.84.61.24.23.31.45.31.78,0,.71-.47,1.07-1.15,1.07-.83,0-1.13-.47-1.13-1.13v-.28h.69v.22c-.01.36.09.63.44.63.29,0,.43-.16.43-.44,0-.22-.1-.37-.28-.49-.36-.29-.81-.49-1.1-.86-.11-.17-.18-.37-.18-.57,0-.64.36-.98,1.09-.98,1.12,0,1.09.85,1.1,1.22h0Zm-27.37,6.7v-2.54h.69v2.6c0,.82-.27,1.21-1.18,1.21s-1.18-.39-1.18-1.21v-2.6h.69v2.54c0,.36.03.71.5.71s.48-.35.48-.71h0Zm16.23-.85v-2.53h.69v2.59c0,.83-.27,1.22-1.17,1.22s-1.19-.39-1.19-1.22v-2.59h.7v2.53c0,.36.02.72.49.72s.48-.36.48-.72h0Zm10.09-.9v-.73h.69v3.72h-.72l-.54-1.32c-.18-.44-.33-.9-.51-1.48.02.31.05.68.08,1.06.02.37.03.75.03,1.04v.7h-.7v-3.72h.72l.54,1.36c.18.43.33.87.51,1.48-.03-.34-.05-.7-.07-1.06-.02-.36-.03-.73-.03-1.05h0Zm-30.78-.08v-.54h2.32v.54h-.81v3.18h-.7v-3.18h-.81Zm5.97,1.22v-.53c.03-.94.1-1.65,1.22-1.65s1.18.71,1.21,1.65v.53c0,.99-.08,1.72-1.21,1.72s-1.22-.73-1.22-1.72h0Zm.71-.69c0-.29-.05-.94.5-.94.52,0,.5.66.5.95v.96c0,.36-.01.87-.5.87s-.5-.5-.5-.81v-1.03h0Zm-1.39-11.56v-.73h.69v3.72h-.72l-.54-1.32c-.18-.44-.33-.9-.5-1.48.02.31.05.69.07,1.06.02.37.04.74.04,1.04v.7h-.69v-3.72h.72l.54,1.35c.18.43.33.87.51,1.48l-.07-1.06c-.04-.35-.05-.71-.05-1.04Z"></path></svg>